{
  "asset": {
    "generator": "Khronos glTF Blender I/O v4.3.47",
    "version": "2.0"
  },
  "extensionsUsed": [
    "KHR_lights_punctual",
    "KHR_materials_specular"
  ],
  "extensionsRequired": [
    "KHR_lights_punctual"
  ],
  "extensions": {
    "KHR_lights_punctual": {
      "lights": [
        {
          "color": [
            0.017032336443662643,
            0,
            1
          ],
          "intensity": 43116.9454655721,
          "type": "point",
          "name": "Точечный источник.053"
        },
        {
          "color": [
            0.017032336443662643,
            0,
            1
          ],
          "intensity": 39931.960621544175,
          "type": "point",
          "name": "Точечный источник.061"
        },
        {
          "color": [
            0.9652484655380249,
            1,
            0.8274513483047485
          ],
          "intensity": 6897.173667575453,
          "type": "point",
          "name": "Точечный источник.062"
        },
        {
          "color": [
            0.017032336443662643,
            0,
            1
          ],
          "intensity": 39931.960621544175,
          "type": "point",
          "name": "Точечный источник.063"
        },
        {
          "color": [
            0.9652484655380249,
            1,
            0.8274513483047485
          ],
          "intensity": 505.4475739613739,
          "type": "point",
          "name": "Точечный источник.064"
        },
        {
          "color": [
            0.9652484655380249,
            1,
            0.8274513483047485
          ],
          "intensity": 505.4475739613739,
          "type": "point",
          "name": "Точечный источник.065"
        },
        {
          "color": [
            0.9652484655380249,
            1,
            0.8274513483047485
          ],
          "intensity": 505.4475739613739,
          "type": "point",
          "name": "Точечный источник.066"
        },
        {
          "color": [
            0.017032336443662643,
            0,
            1
          ],
          "intensity": 39931.960621544175,
          "type": "point",
          "name": "Точечный источник.067"
        },
        {
          "color": [
            0.017032336443662643,
            0,
            1
          ],
          "intensity": 43116.9454655721,
          "type": "point",
          "name": "Точечный источник.001"
        },
        {
          "color": [
            1,
            0.07982378453016281,
            0
          ],
          "intensity": 43116.9454655721,
          "type": "point",
          "name": "Точечный источник.002"
        }
      ]
    }
  },
  "scene": 0,
  "scenes": [
    {
      "name": "Scene",
      "nodes": [
        0,
        1,
        2,
        3,
        4,
        5,
        6,
        7,
        8,
        9,
        10,
        11,
        12,
        13,
        14,
        15
      ]
    }
  ],
  "nodes": [
    {
      "name": "Источник-область",
      "rotation": [
        -0.34886470437049866,
        -0.5065881013870239,
        0.00858287326991558,
        0.7884088158607483
      ],
      "scale": [
        2.5321359634399414,
        2.532135486602783,
        2.532135486602783
      ],
      "translation": [
        -1.4150795936584473,
        0.9171873331069946,
        0.9915628433227539
      ]
    },
    {
      "extensions": {
        "KHR_lights_punctual": {
          "light": 0
        }
      },
      "name": "Точечный источник.013",
      "rotation": [
        -0.7071068286895752,
        0,
        0,
        0.7071068286895752
      ],
      "translation": [
        0.5467661619186401,
        0.7713845372200012,
        -0.8567327260971069
      ]
    },
    {
      "extensions": {
        "KHR_lights_punctual": {
          "light": 1
        }
      },
      "name": "Точечный источник.001",
      "rotation": [
        -0.7071068286895752,
        0,
        0,
        0.7071068286895752
      ],
      "translation": [
        -1.885851263999939,
        1.811413288116455,
        -0.4891057014465332
      ]
    },
    {
      "extensions": {
        "KHR_lights_punctual": {
          "light": 2
        }
      },
      "name": "Точечный источник.002",
      "rotation": [
        -0.7071068286895752,
        0,
        0,
        0.7071068286895752
      ],
      "translation": [
        -0.8495734930038452,
        2.097827672958374,
        -1.7932084798812866
      ]
    },
    {
      "extensions": {
        "KHR_lights_punctual": {
          "light": 3
        }
      },
      "name": "Точечный источник.003",
      "rotation": [
        -0.7071068286895752,
        0,
        0,
        0.7071068286895752
      ],
      "translation": [
        2.0572152137756348,
        0.5012711882591248,
        0.403353214263916
      ]
    },
    {
      "name": "Источник-область.001",
      "rotation": [
        -0.34886470437049866,
        -0.5065881013870239,
        0.00858287326991558,
        0.7884088158607483
      ],
      "scale": [
        2.5321359634399414,
        2.532135486602783,
        2.532135486602783
      ],
      "translation": [
        0.14953231811523438,
        2.6254935264587402,
        0.26376163959503174
      ]
    },
    {
      "extensions": {
        "KHR_lights_punctual": {
          "light": 4
        }
      },
      "name": "Точечный источник.004",
      "rotation": [
        -0.7071068286895752,
        0,
        0,
        0.7071068286895752
      ],
      "translation": [
        -0.4174475073814392,
        1.6931381225585938,
        -0.9859763383865356
      ]
    },
    {
      "extensions": {
        "KHR_lights_punctual": {
          "light": 5
        }
      },
      "name": "Точечный источник.005",
      "rotation": [
        -0.7071068286895752,
        0,
        0,
        0.7071068286895752
      ],
      "translation": [
        -0.31030821800231934,
        1.9792088270187378,
        -0.48744603991508484
      ]
    },
    {
      "extensions": {
        "KHR_lights_punctual": {
          "light": 6
        }
      },
      "name": "Точечный источник.006",
      "rotation": [
        -0.7071068286895752,
        0,
        0,
        0.7071068286895752
      ],
      "translation": [
        1.7456892728805542,
        -1.1567643880844116,
        -1.3423593044281006
      ]
    },
    {
      "extensions": {
        "KHR_lights_punctual": {
          "light": 7
        }
      },
      "name": "Точечный источник.007",
      "rotation": [
        -0.7071068286895752,
        0,
        0,
        0.7071068286895752
      ],
      "translation": [
        1.6844481229782104,
        0.8074057102203369,
        -1.9730465412139893
      ]
    },
    {
      "name": "Источник-область.002",
      "rotation": [
        0.6352429986000061,
        0.6454021334648132,
        0.295539915561676,
        0.30426734685897827
      ],
      "scale": [
        2.5321359634399414,
        2.532135486602783,
        2.532135486602783
      ],
      "translation": [
        2.9620585441589355,
        0.751483678817749,
        -2.7074813842773438
      ]
    },
    {
      "name": "Источник-область.003",
      "rotation": [
        -0.24507617950439453,
        -0.1642761528491974,
        -0.07441143691539764,
        0.9525828957557678
      ],
      "scale": [
        15.413445472717285,
        15.413443565368652,
        15.413442611694336
      ],
      "translation": [
        -0.7962343692779541,
        1.842278242111206,
        2.1901183128356934
      ]
    },
    {
      "name": "Источник-область.004",
      "rotation": [
        -0.7578080296516418,
        -0.6275165677070618,
        -0.15622089803218842,
        0.0868617594242096
      ],
      "scale": [
        15.413445472717285,
        15.413443565368652,
        15.413442611694336
      ],
      "translation": [
        1.5678086280822754,
        2.73073148727417,
        -4.679108619689941
      ]
    },
    {
      "extensions": {
        "KHR_lights_punctual": {
          "light": 8
        }
      },
      "name": "Точечный источник.008",
      "rotation": [
        -0.7071068286895752,
        0,
        0,
        0.7071068286895752
      ],
      "translation": [
        0.18254658579826355,
        -0.21629318594932556,
        -0.15117590129375458
      ]
    },
    {
      "extensions": {
        "KHR_lights_punctual": {
          "light": 9
        }
      },
      "name": "Точечный источник.009",
      "rotation": [
        -0.7071068286895752,
        0,
        0,
        0.7071068286895752
      ],
      "translation": [
        -0.5414274334907532,
        -0.16081824898719788,
        0.2599841356277466
      ]
    },
    {
      "mesh": 0,
      "name": "Тор",
      "rotation": [
        -0.466237872838974,
        0.1704254001379013,
        -0.2155749797821045,
        0.8408952951431274
      ],
      "scale": [
        0.5128980278968811,
        0.5128979682922363,
        0.5128979682922363
      ],
      "translation": [
        -0.1533689796924591,
        0.7346092462539673,
        -0.07847151160240173
      ]
    }
  ],
  "materials": [
    {
      "doubleSided": true,
      "extensions": {
        "KHR_materials_specular": {
          "specularFactor": 0
        }
      },
      "name": "Материал.006",
      "pbrMetallicRoughness": {
        "baseColorFactor": [
          0.800000011920929,
          0.800000011920929,
          0.800000011920929,
          1
        ],
        "roughnessFactor": 0.18661999702453613
      }
    }
  ],
  "meshes": [
    {
      "name": "Тор",
      "primitives": [
        {
          "attributes": {
            "POSITION": 0,
            "NORMAL": 1,
            "TEXCOORD_0": 2
          },
          "indices": 3,
          "material": 0
        }
      ]
    }
  ],
  "accessors": [
    {
      "bufferView": 0,
      "componentType": 5126,
      "count": 57138,
      "max": [
        0.9891619682312012,
        0.23308885097503662,
        0.9909228086471558
      ],
      "min": [
        -0.9890574216842651,
        -0.23310407996177673,
        -0.990913987159729
      ],
      "type": "VEC3"
    },
    {
      "bufferView": 1,
      "componentType": 5126,
      "count": 57138,
      "type": "VEC3"
    },
    {
      "bufferView": 2,
      "componentType": 5126,
      "count": 57138,
      "type": "VEC2"
    },
    {
      "bufferView": 3,
      "componentType": 5123,
      "count": 86394,
      "type": "SCALAR"
    }
  ],
  "bufferViews": [
    {
      "buffer": 0,
      "byteLength": 685656,
      "byteOffset": 0,
      "target": 34962
    },
    {
      "buffer": 0,
      "byteLength": 685656,
      "byteOffset": 685656,
      "target": 34962
    },
    {
      "buffer": 0,
      "byteLength": 457104,
      "byteOffset": 1371312,
      "target": 34962
    },
    {
      "buffer": 0,
      "byteLength": 172788,
      "byteOffset": 1828416,
      "target": 34963
    }
  ],
  "buffers": [
    {
      "uri": "tor_data.bin",
      "byteLength": 2001204
    }
  ]
}