{
  "asset": {
    "generator": "Khronos glTF Blender I/O v4.3.47",
    "version": "2.0"
  },
  "extensionsUsed": [
    "KHR_materials_clearcoat",
    "KHR_materials_specular",
    "KHR_materials_ior"
  ],
  "scene": 0,
  "scenes": [
    {
      "name": "Scene",
      "nodes": [
        0
      ]
    }
  ],
  "nodes": [
    {
      "mesh": 0,
      "name": "Куб",
      "rotation": [
        0.31317442655563354,
        -0.15984389185905457,
        0.014509196393191814,
        0.9360348582267761
      ],
      "scale": [
        0.19739815592765808,
        0.8803566694259644,
        0.2702140808105469
      ],
      "translation": [
        -0.377957284450531,
        0.7251395583152771,
        -0.051869090646505356
      ]
    }
  ],
  "materials": [
    {
      "doubleSided": true,
      "extensions": {
        "KHR_materials_clearcoat": {
          "clearcoatRoughnessFactor": 0
        },
        "KHR_materials_specular": {
          "specularFactor": 0
        },
        "KHR_materials_ior": {
          "ior": 0
        }
      },
      "name": "Материал.006",
      "pbrMetallicRoughness": {
        "baseColorFactor": [
          0.800000011920929,
          0.800000011920929,
          0.800000011920929,
          1
        ],
        "roughnessFactor": 0.18661999702453613
      }
    }
  ],
  "meshes": [
    {
      "name": "Куб",
      "primitives": [
        {
          "attributes": {
            "POSITION": 0,
            "NORMAL": 1,
            "TEXCOORD_0": 2
          },
          "indices": 3,
          "material": 0
        }
      ]
    }
  ],
  "accessors": [
    {
      "bufferView": 0,
      "componentType": 5126,
      "count": 457183,
      "max": [
        6.700455188751221,
        0.8822029232978821,
        1.000001072883606
      ],
      "min": [
        -0.9668701887130737,
        -1.1151878833770752,
        -1.000001311302185
      ],
      "type": "VEC3"
    },
    {
      "bufferView": 1,
      "componentType": 5126,
      "count": 457183,
      "type": "VEC3"
    },
    {
      "bufferView": 2,
      "componentType": 5126,
      "count": 457183,
      "type": "VEC2"
    },
    {
      "bufferView": 3,
      "componentType": 5125,
      "count": 700416,
      "type": "SCALAR"
    }
  ],
  "bufferViews": [
    {
      "buffer": 0,
      "byteLength": 5486196,
      "byteOffset": 0,
      "target": 34962
    },
    {
      "buffer": 0,
      "byteLength": 5486196,
      "byteOffset": 5486196,
      "target": 34962
    },
    {
      "buffer": 0,
      "byteLength": 3657464,
      "byteOffset": 10972392,
      "target": 34962
    },
    {
      "buffer": 0,
      "byteLength": 2801664,
      "byteOffset": 14629856,
      "target": 34963
    }
  ],
  "buffers": [
    {
      "uri": "triangle_data.bin",
      "byteLength": 17431520
    }
  ]
}