{
	"asset": {
		"generator": "Khronos glTF Blender I/O v4.3.47",
		"version": "2.0"
	},
	"extensionsUsed": ["KHR_materials_specular", "KHR_materials_ior"],
	"scene": 0,
	"scenes": [
		{
			"name": "Scene",
			"nodes": [1]
		}
	],
	"nodes": [
		{
			"mesh": 0,
			"name": "helmet",
			"rotation": [
				-0.0506761334836483, 0.14825595915317535, 0.824404776096344,
				0.5438831448554993
			],
			"scale": [8.753934860229492, 8.753934860229492, 8.753934860229492],
			"translation": [
				57.183956146240234, -30.2196102142334, -25.746023178100586
			]
		},
		{
			"children": [0],
			"name": "construction-helmet-001",
			"rotation": [0.7071068286895752, 0, 0, 0.7071068286895752],
			"scale": [
				0.009999999776482582, 0.009999999776482582, 0.009999999776482582
			]
		}
	],
	"materials": [
		{
			"doubleSided": true,
			"extensions": {
				"KHR_materials_specular": {
					"specularColorFactor": [2, 2, 2]
				},
				"KHR_materials_ior": {
					"ior": 1.9000000953674316
				}
			},
			"name": "Default",
			"pbrMetallicRoughness": {
				"baseColorFactor": [
					0.8024026155471802, 0.11038974672555923, 0.007988044060766697, 1
				],
				"metallicFactor": 0.7361963987350464,
				"roughnessFactor": 0.2208588868379593
			}
		}
	],
	"meshes": [
		{
			"name": "Меш.001",
			"primitives": [
				{
					"attributes": {
						"POSITION": 0,
						"NORMAL": 1,
						"TEXCOORD_0": 2
					},
					"indices": 3,
					"material": 0
				}
			]
		}
	],
	"accessors": [
		{
			"bufferView": 0,
			"componentType": 5126,
			"count": 1808,
			"max": [8.791634559631348, 13.718649864196777, 0],
			"min": [-8.791634559631348, -13.718649864196777, -13.506600379943848],
			"type": "VEC3"
		},
		{
			"bufferView": 1,
			"componentType": 5126,
			"count": 1808,
			"type": "VEC3"
		},
		{
			"bufferView": 2,
			"componentType": 5126,
			"count": 1808,
			"type": "VEC2"
		},
		{
			"bufferView": 3,
			"componentType": 5123,
			"count": 8418,
			"type": "SCALAR"
		}
	],
	"bufferViews": [
		{
			"buffer": 0,
			"byteLength": 21696,
			"byteOffset": 0,
			"target": 34962
		},
		{
			"buffer": 0,
			"byteLength": 21696,
			"byteOffset": 21696,
			"target": 34962
		},
		{
			"buffer": 0,
			"byteLength": 14464,
			"byteOffset": 43392,
			"target": 34962
		},
		{
			"buffer": 0,
			"byteLength": 16836,
			"byteOffset": 57856,
			"target": 34963
		}
	],
	"buffers": [
		{
			"uri": "helmet.bin",
			"byteLength": 74692
		}
	]
}
